HIERARCHY
ROOT Hips
{
    OFFSET 0.000000 0.000000 0.000000
    CHANNELS 6 Xposition Yposition Zposition Zrotation Xrotation Yrotation
    JOINT Spine
    {
        OFFSET -0.000000 14.517291 0.000000
        CHANNELS 3 Zrotation Xrotation Yrotation
        JOINT Spine1
        {
            OFFSET -0.000000 37.558300 0.000000
            CHANNELS 3 Zrotation Xrotation Yrotation
            JOINT Neck
            {
                OFFSET -0.000000 37.404057 3.400369
                CHANNELS 3 Zrotation Xrotation Yrotation
                JOINT Head
                {
                    OFFSET -0.000000 24.785618 -3.540803
                    CHANNELS 3 Zrotation Xrotation Yrotation
                    End Site
                    {
                        OFFSET -0.000000 35.408028 0.000000
                    }
                }
            }
            JOINT LeftShoulder
            {
                OFFSET 6.992933 33.973492 -0.192664
                CHANNELS 3 Zrotation Xrotation Yrotation
                JOINT LeftArm
                {
                    OFFSET 21.527611 0.000000 0.000000
                    CHANNELS 3 Zrotation Xrotation Yrotation
                    JOINT LeftForeArm
                    {
                        OFFSET 56.353916 0.000000 0.000000
                        CHANNELS 3 Zrotation Xrotation Yrotation
                        JOINT LeftHand
                        {
                            OFFSET 47.774071 0.000000 0.000000
                            CHANNELS 3 Zrotation Xrotation Yrotation
                            End Site
                            {
                                OFFSET 26.556021 0.000000 0.000000
                            }
                        }
                    }
                }
            }
            JOINT RightShoulder
            {
                OFFSET -7.065357 33.973492 -0.192664
                CHANNELS 3 Zrotation Xrotation Yrotation
                JOINT RightArm
                {
                    OFFSET -21.527611 0.000000 0.000000
                    CHANNELS 3 Zrotation Xrotation Yrotation
                    JOINT RightForeArm
                    {
                        OFFSET -56.353916 0.000000 0.000000
                        CHANNELS 3 Zrotation Xrotation Yrotation
                        JOINT RightHand
                        {
                            OFFSET -47.774071 0.000000 0.000000
                            CHANNELS 3 Zrotation Xrotation Yrotation
                            End Site
                            {
                                OFFSET -26.556021 0.000000 0.000000
                            }
                        }
                    }
                }
            }
        }
    }
    JOINT LeftUpLeg
    {
        OFFSET 17.704014 0.000000 0.000000
        CHANNELS 3 Zrotation Xrotation Yrotation
        JOINT LeftLeg
        {
            OFFSET -0.000000 -81.181816 0.000000
            CHANNELS 3 Zrotation Xrotation Yrotation
            JOINT LeftFoot
            {
                OFFSET -0.000000 -62.821102 0.000000
                CHANNELS 3 Zrotation Xrotation Yrotation
                JOINT LeftToeBase
                {
                    OFFSET -0.000000 -11.507608 26.556021
                    CHANNELS 3 Zrotation Xrotation Yrotation
                    End Site
                    {
                        OFFSET -0.000000 0.000000 7.081605
                    }
                }
            }
        }
    }
    JOINT RightUpLeg
    {
        OFFSET -17.704014 0.000000 0.000000
        CHANNELS 3 Zrotation Xrotation Yrotation
        JOINT RightLeg
        {
            OFFSET -0.000000 -81.181816 0.000000
            CHANNELS 3 Zrotation Xrotation Yrotation
            JOINT RightFoot
            {
                OFFSET -0.000000 -62.821102 0.000000
                CHANNELS 3 Zrotation Xrotation Yrotation
                JOINT RightToeBase
                {
                    OFFSET -0.000000 -11.507608 26.556021
                    CHANNELS 3 Zrotation Xrotation Yrotation
                    End Site
                    {
                        OFFSET -0.000000 0.000000 7.081605
                    }
                }
            }
        }
    }
}
MOTION
Frames:    4
Frame Time:    0.008333
-26.036495    151.718048    -31.479031    0.347530    2.499384    19.879274    -1.367902    3.911195    9.960748    -2.336762    0.068074    3.307840    -3.747448    2.464434    -14.280143    13.776535    -4.333887    -11.950721    0.498587    3.444252    -8.741897    -36.189690    19.137512    -54.643391    -5.798395    -22.687899    -128.129974    -1.809848    -33.139767    -7.581724    -2.114629    10.721232    5.607175    39.400970    6.794493    56.747448    -52.606743    -42.285686    30.162682    30.749001    -22.747066    28.526800    -1.825033    -34.427883    -27.915760    -12.193706    26.466843    -23.283747    -7.876839    -2.024753    32.900089    0.000000    0.000000    0.000000    0.434106    6.808942    -22.515060    2.882623    28.152567    -4.831127    1.314520    -32.364082    -9.651925    0.000000    0.000000    0.000000    
-26.034721    151.714752    -31.466949    0.352088    2.503644    19.893147    -1.365049    3.904931    9.952587    -2.359086    0.069570    3.305211    -3.744425    2.480474    -14.282934    13.784244    -4.358651    -11.950266    0.496905    3.444768    -8.740455    -36.184628    19.133953    -54.644066    -5.795803    -22.680799    -128.127075    -1.828383    -33.126976    -7.597543    -2.113447    10.747792    5.591314    39.450478    6.687108    56.551163    -52.279331    -42.524364    30.492086    30.859287    -22.954111    28.537672    -1.837295    -34.428295    -27.927185    -12.196472    26.472475    -23.301149    -7.859691    -2.025880    32.911522    0.000000    0.000000    0.000000    0.435845    6.810736    -22.540171    2.868728    28.150537    -4.824392    1.324782    -32.365036    -9.656309    0.000000    0.000000    0.000000    
-26.031548    151.713959    -31.458187    0.362521    2.503691    19.914297    -1.373556    3.906134    9.939841    -2.356907    0.072212    3.300918    -3.760095    2.478723    -14.292220    13.782154    -4.356979    -11.958504    0.484686    3.448653    -8.734923    -36.184334    19.129000    -54.650154    -5.806137    -22.666447    -128.132004    -1.814669    -33.134182    -7.584053    -2.128728    10.759243    5.571355    39.478771    6.639013    56.375362    -52.118240    -42.684280    30.668888    30.914324    -23.095295    28.569826    -1.864120    -34.422886    -27.928812    -12.185343    26.478594    -23.298210    -7.843842    -1.999819    32.877369    0.000000    0.000000    0.000000    0.431653    6.820109    -22.552143    2.857967    28.148109    -4.842031    1.357123    -32.361797    -9.627609    0.000000    0.000000    0.000000    
-26.028597    151.713669    -31.448221    0.369530    2.505595    19.931622    -1.369749    3.907318    9.931313    -2.379510    0.070389    3.298094    -3.744721    2.486248    -14.297201    13.760077    -4.371915    -11.968122    0.490275    3.457394    -8.724539    -36.173088    19.140718    -54.667511    -5.793334    -22.686295    -128.123749    -1.808224    -33.128304    -7.581785    -2.122222    10.777432    5.563385    39.493000    6.594855    56.201668    -52.035042    -42.781494    30.778276    30.982216    -23.173645    28.565437    -1.882795    -34.418156    -27.936621    -12.180098    26.475769    -23.306108    -7.832853    -1.984379    32.873638    0.000000    0.000000    0.000000    0.429066    6.826162    -22.574896    2.844843    28.146324    -4.835539    1.377647    -32.360191    -9.613653    0.000000    0.000000    0.000000    
